<?xml version="1.0" standalone="no"?>
<!DOCTYPE svg PUBLIC "-//W3C//DTD SVG 20010904//EN"
 "http://www.w3.org/TR/2001/REC-SVG-20010904/DTD/svg10.dtd">
<svg version="1.0" xmlns="http://www.w3.org/2000/svg"
 width="300.000000pt" height="134.000000pt" viewBox="0 0 300.000000 134.000000"
 preserveAspectRatio="xMidYMid meet">
<metadata>
Created by potrace 1.10, written by Peter Selinger 2001-2011
</metadata>
<g transform="translate(0.000000,134.000000) scale(0.100000,-0.100000)"
fill="#ffffff" stroke="none">
<path d="M1127 1303 c-4 -3 -7 -120 -7 -259 l0 -253 -40 -57 c-22 -32 -40 -68
-40 -81 l0 -23 485 0 c483 0 485 0 485 21 0 11 -18 46 -40 79 l-40 58 -2 259
-3 258 -396 3 c-217 1 -398 -1 -402 -5z m756 -268 l-2 -225 -358 -3 -358 -2
-1 228 -1 227 361 0 361 0 -2 -225z m37 -313 c14 -20 27 -40 28 -44 2 -5 -188
-8 -423 -8 -235 0 -425 3 -423 8 2 4 14 24 28 44 l25 38 370 0 370 0 25 -38z
m65 -63 c-4 -5 -13 -9 -22 -9 -13 0 -13 3 -3 15 13 15 35 11 25 -6z m-890 1
c3 -5 2 -10 -4 -10 -5 0 -13 5 -16 10 -3 6 -2 10 4 10 5 0 13 -4 16 -10z"/>
<path d="M1444 1221 c-158 -72 -166 -287 -14 -369 37 -19 56 -23 107 -20 105
6 179 77 190 182 17 151 -145 270 -283 207z m124 -33 c-3 -7 -13 -17 -24 -22
-12 -5 -25 -19 -30 -30 -10 -24 -48 -24 -76 1 -25 23 -22 32 15 48 41 18 120
20 115 3z m71 -32 l23 -24 -30 -16 c-33 -17 -58 -72 -47 -106 4 -11 19 -35 35
-52 33 -35 29 -48 -21 -74 -32 -16 -135 -19 -144 -4 -4 6 -11 8 -16 5 -9 -6
-43 8 -38 16 1 2 -8 23 -20 46 -23 46 -27 103 -10 152 10 29 29 43 29 21 0
-15 56 -40 91 -40 23 0 41 10 70 39 22 21 39 44 39 50 0 18 15 13 39 -13z m49
-100 c2 -16 1 -44 -2 -61 l-6 -33 -30 26 c-34 30 -37 48 -14 80 21 31 48 24
52 -12z"/>
<path d="M1415 1038 c-2 -7 -6 -34 -10 -60 -6 -44 -4 -49 19 -60 14 -6 26 -15
26 -20 0 -15 47 -8 63 10 22 25 31 67 18 91 -21 39 -106 68 -116 39z m60 -40
c14 -6 25 -18 25 -27 -1 -20 -24 -51 -37 -51 -16 0 -35 27 -25 34 5 3 7 17 4
31 -5 28 -3 29 33 13z"/>
<path d="M550 415 c0 -11 12 -15 44 -15 25 0 48 -5 51 -10 12 -20 -17 -40 -56
-40 -25 0 -39 -5 -39 -13 0 -8 12 -11 38 -9 23 2 45 -3 57 -12 20 -16 20 -16
0 -32 -13 -10 -32 -14 -57 -11 -28 4 -38 1 -38 -9 0 -21 103 -19 124 2 22 21
20 51 -4 64 -18 10 -19 13 -5 26 36 36 1 74 -68 74 -35 0 -47 -4 -47 -15z"/>
<path d="M740 415 c0 -11 12 -15 49 -15 56 0 82 -19 61 -45 -8 -10 -30 -15
-61 -15 l-49 0 0 -45 c0 -33 4 -45 15 -45 10 0 15 10 15 30 0 40 32 41 61 1
19 -26 59 -49 59 -34 0 4 -11 21 -26 40 -14 18 -21 33 -15 33 16 0 41 30 41
51 0 37 -35 59 -95 59 -42 0 -55 -3 -55 -15z"/>
<path d="M1000 335 c0 -76 3 -95 14 -95 12 0 15 21 18 95 3 85 1 95 -14 95
-16 0 -18 -11 -18 -95z"/>
<path d="M1179 401 c-41 -41 -37 -102 10 -138 24 -18 101 -17 101 2 0 11 -11
15 -39 15 -42 0 -71 26 -71 62 0 30 37 58 75 58 24 0 35 5 35 15 0 11 -11 15
-41 15 -31 0 -47 -6 -70 -29z"/>
<path d="M1350 415 c0 -12 14 -15 70 -15 56 0 70 3 70 15 0 12 -14 15 -70 15
-56 0 -70 -3 -70 -15z"/>
<path d="M1550 415 c0 -11 11 -15 39 -15 30 0 44 -6 55 -22 35 -50 7 -98 -57
-98 -26 0 -37 -4 -37 -15 0 -11 12 -15 45 -15 35 0 52 6 70 25 58 57 11 155
-74 155 -30 0 -41 -4 -41 -15z"/>
<path d="M1750 415 c0 -12 14 -15 70 -15 56 0 70 3 70 15 0 12 -14 15 -70 15
-56 0 -70 -3 -70 -15z"/>
<path d="M2001 358 c28 -40 56 -81 62 -90 7 -10 19 -18 27 -18 12 0 15 16 15
90 0 82 -2 90 -19 90 -17 0 -18 -6 -14 -65 3 -36 5 -65 4 -65 -2 0 -23 29 -47
65 -26 39 -51 65 -62 65 -14 0 -7 -15 34 -72z"/>
<path d="M2210 334 c0 -82 2 -95 16 -92 13 2 16 20 17 96 2 82 0 92 -15 92
-16 0 -18 -11 -18 -96z"/>
<path d="M2392 405 c-36 -30 -49 -75 -21 -75 11 0 19 7 19 15 0 27 38 55 75
55 24 0 35 5 35 15 0 26 -73 19 -108 -10z"/>
<path d="M1945 320 c0 -60 3 -70 18 -70 24 0 24 86 -1 117 -17 22 -17 21 -17
-47z"/>
<path d="M1350 335 c0 -12 14 -15 65 -15 51 0 65 3 65 15 0 12 -14 15 -65 15
-51 0 -65 -3 -65 -15z"/>
<path d="M1750 335 c0 -12 14 -15 65 -15 51 0 65 3 65 15 0 12 -14 15 -65 15
-51 0 -65 -3 -65 -15z"/>
<path d="M2485 342 c-6 -4 -18 -19 -28 -34 -13 -21 -26 -28 -59 -30 -62 -4
-62 -28 0 -28 58 0 102 32 102 75 0 27 0 28 -15 17z"/>
<path d="M1350 265 c0 -12 14 -15 70 -15 56 0 70 3 70 15 0 12 -14 15 -70 15
-56 0 -70 -3 -70 -15z"/>
<path d="M1750 265 c0 -12 14 -15 70 -15 56 0 70 3 70 15 0 12 -14 15 -70 15
-56 0 -70 -3 -70 -15z"/>
<path d="M550 105 l0 -25 975 0 975 0 0 25 0 25 -975 0 -975 0 0 -25z"/>
</g>
</svg>
